<?xml version="1.0" encoding="utf-8"?>
<!-- Generator: Adobe Illustrator 26.0.1, SVG Export Plug-In . SVG Version: 6.00 Build 0)  -->
<svg version="1.1" id="Слой_1" xmlns="http://www.w3.org/2000/svg" xmlns:xlink="http://www.w3.org/1999/xlink" x="0px" y="0px"
	 viewBox="0 0 841.89 595.28" style="enable-background:new 0 0 841.89 595.28;" xml:space="preserve">
<style type="text/css">
	.st0{fill:#F7D647;stroke:#FFFFFF;stroke-width:3;stroke-miterlimit:10;}
</style>
<g>
	<path class="st0" d="M155.18,161.55c0,21.71-7.08,39.71-21.23,53.99c-6.92,6.98-15.31,12.39-25.17,16.24
		c-10.57,4.16-22.9,6.12-36.99,5.86l-33.91-0.58c-9.22-0.13-16.85,0.06-22.86,0.58l-0.96-0.96v-2.69l0.48-1.15
		c4.74-3.01,7.3-4.9,7.69-5.67c0.58-1.15,0.93-5.41,1.06-12.78l0.29-21.52v-48.71c0-15.24-0.42-25.17-1.25-29.78
		c-0.32-1.86-1.41-3.04-3.27-3.55c-0.96-0.26-4.71-0.58-11.24-0.96l-0.96-0.96v-6.53l0.96-0.86c6.79,0.38,13.26,0.58,19.41,0.58
		c14.92,0,28.37-0.19,40.35-0.58c5.96-0.19,11.94-0.29,17.97-0.29c16.65,0,29.43,1.89,38.33,5.67c9.73,4.16,17.36,10.7,22.86,19.6
		C152.36,135.64,155.18,147.33,155.18,161.55z M125.68,166.16c0-17.74-4.29-31.38-12.87-40.93c-4.48-5-10.09-8.52-16.81-10.57
		c-6.41-1.92-15.34-2.88-26.8-2.88c-5.96,0-11.66,0.42-17.1,1.25c-0.64,7.17-0.96,24.53-0.96,52.07l0.19,41.98
		c0.06,9.35,0.32,15.56,0.77,18.64c5.64,0.9,11.4,1.35,17.29,1.35c12.74,0,22.8-1.86,30.17-5.57c7.94-4.04,14.25-10.89,18.93-20.56
		C123.28,190.95,125.68,179.36,125.68,166.16z"/>
	<path class="st0" d="M279.59,236.58l-0.96,0.96c-9.61-0.32-15.66-0.48-18.16-0.48c-2.11,0-5.25,0.08-9.41,0.24
		c-4.16,0.16-7.27,0.24-9.32,0.24l-0.77-0.77c0.51-5.25,0.77-10.25,0.77-14.99c-3.33,2.5-9.16,7.81-17.49,15.95
		c-4.16,1.6-8.61,2.4-13.35,2.4c-8.65,0-15.47-2.35-20.46-7.06c-5-4.71-7.49-11.48-7.49-20.32c0-1.09,0.06-3.39,0.19-6.92
		c0.13-3.52,0.19-6.92,0.19-10.18v-12.3c0-12.68-0.48-20.05-1.44-22.1c-0.64-1.28-2.02-2.08-4.13-2.4
		c-0.77-0.13-3.59-0.29-8.45-0.48l-0.96-0.96v-5.38l0.96-1.06c12.23-1.09,24.63-3.75,37.18-7.97l2.11,1.25
		c-0.83,10.63-1.25,20.46-1.25,29.49v18.73c0,8.78,0.29,14.76,0.86,17.96c0.64,3.84,2.16,6.76,4.56,8.74
		c2.4,1.99,5.62,2.98,9.65,2.98c5,0,9.38-1.6,13.16-4.8c3.59-3.2,5.48-6.85,5.67-10.95c0.13-3.14,0.19-5.09,0.19-5.86v-17.2
		c0-12.55-0.48-19.92-1.44-22.1c-0.58-1.28-1.92-2.08-4.04-2.4c-0.77-0.13-3.59-0.29-8.45-0.48l-1.06-0.96v-5.38l1.06-1.06
		c12.17-1.09,24.56-3.75,37.18-7.97l2.02,1.25c-0.83,9.61-1.25,19.44-1.25,29.49v30.17c0,13.51,0.38,21.17,1.15,22.96
		c0.38,0.9,1.02,1.47,1.92,1.73c1.54,0.45,4.87,0.83,9.99,1.15l1.06,0.96V236.58z"/>
	<path class="st0" d="M400.45,236.68l-0.96,1.06c-7.05-0.45-13-0.67-17.87-0.67c-4.48,0-11.02,0.22-19.6,0.67l-0.96-0.96
		c1.15-14.28,1.73-25.3,1.73-33.05v-18.83c0-15.63-5.64-23.44-16.91-23.44c-5.89,0-10.5,2.02-13.83,6.05
		c-2.82,3.4-4.23,6.82-4.23,10.28v17.96c0,16.59,0.42,26.77,1.25,30.55c0.51,2.24,4.23,3.43,11.14,3.55l0.96,0.96v5.86l-0.96,0.96
		c-5.44-0.38-13.58-0.58-24.4-0.58c-11.47,0-20.21,0.22-26.23,0.67l-0.96-0.96v-5.86l0.96-0.96c6.15-0.19,9.96-0.67,11.43-1.44
		c1.28-0.58,1.98-2.11,2.11-4.61c0.45-8.33,0.67-17.26,0.67-26.8v-13.74c0-12.81-0.48-20.17-1.44-22.1
		c-0.64-1.28-2.02-2.08-4.13-2.4c-0.77-0.13-3.55-0.29-8.36-0.48l-0.96-0.96v-5.38l0.96-1.06c11.53-1.09,23.67-3.75,36.41-7.97
		l2.11,1.25l-0.19,16.14l16.52-13.83c4.23-1.73,8.87-2.59,13.93-2.59c10.18,0,17.8,3.07,22.86,9.22c4.1,5,6.15,12.33,6.15,22
		c0,1.09-0.13,5.54-0.38,13.35c-0.26,7.81-0.38,13.39-0.38,16.72c0,9.67,0.16,15.84,0.48,18.49c0.32,2.66,1.06,4.34,2.21,5.04
		c1.15,0.71,4.48,1.12,9.99,1.25l0.86,0.96V236.68z"/>
	<path class="st0" d="M511.89,243.69c0,14.03-5.23,25.2-15.71,33.53c-10.47,8.33-24.16,12.49-41.07,12.49
		c-13.26,0-23.75-2.48-31.46-7.45c-7.72-4.96-11.58-11.64-11.58-20.03c0-5.64,1.25-9.9,3.75-12.78c0.26-0.32,3.65-2.43,10.18-6.34
		c3.14-1.86,5.44-3.17,6.92-3.94c-8.84-1.54-13.26-5.8-13.26-12.78c0-3.71,1.28-7.49,3.84-11.34c0.19-0.26,1.92-1.54,5.19-3.84
		c1.54-1.09,4.26-3.04,8.17-5.86c-13.83-5-20.75-14.25-20.75-27.76c0-10.44,3.91-18.84,11.72-25.22c7.81-6.37,18.22-9.56,31.22-9.56
		c12.55,0,22.38,2.79,29.49,8.36c4.04,0.19,6.63,0.26,7.78,0.19c3.14-0.13,7.88-0.29,14.22-0.48l1.15,1.06l-1.06,9.9l-1.06,0.96
		h-14.22c0.83,3.07,1.25,6.21,1.25,9.42c0,15.24-7.4,25.65-22.19,31.22c-6.66,2.5-13.23,3.75-19.7,3.75c-2.18,0-4.99-0.16-8.45-0.48
		c-4.04,2.18-6.05,5.03-6.05,8.55c0,3.27,2.34,5.12,7.01,5.57c2.69,0.26,7.17,0.38,13.45,0.38c1.98,0,5.44-0.1,10.38-0.29
		c4.93-0.19,8.58-0.29,10.95-0.29c14.47,0,23.47,3.2,27,9.61C510.93,233.7,511.89,238.18,511.89,243.69z M489.89,254.64
		c0-6.98-2.43-11.37-7.3-13.16c-2.05-0.77-6.15-1.19-12.3-1.25l-18.25-0.19c-2.05,0-4.87,0.06-8.45,0.19
		c-8.78,5.44-13.16,11.69-13.16,18.73c0,6.47,2.59,11.54,7.78,15.23c5.19,3.68,12.14,5.52,20.85,5.52c9.35,0,16.83-2.26,22.43-6.77
		C487.08,268.43,489.89,262.33,489.89,254.64z M472.4,176.54c0-16.14-5.41-24.21-16.24-24.21c-10.63,0-15.95,6.98-15.95,20.94
		c0,16.52,5.54,24.79,16.62,24.79C467.21,198.06,472.4,190.88,472.4,176.54z"/>
	<path class="st0" d="M605.36,183.17c0,1.09-0.03,2.72-0.1,4.9l-1.06,1.35c-8.45,2.31-19.66,3.46-33.62,3.46
		c-2.5,0-6.28,0.05-11.34,0.14c-5.06,0.1-8.87,0.14-11.43,0.14c0.38,9.42,3.3,17.2,8.74,23.35c5.7,6.6,13.13,9.9,22.29,9.9
		c6.15,0,13.45-2.11,21.9-6.34l2.31,2.79l-4.23,9.51c-9.35,5.96-19.5,8.93-30.46,8.93c-14.41,0-25.6-4.07-33.58-12.2
		c-7.97-8.13-11.96-19.73-11.96-34.78c0-17.87,4.26-30.1,12.78-36.7c11.78-9.09,22.96-13.64,33.53-13.64
		c11.46,0,20.33,3.3,26.61,9.9C602.16,160.65,605.36,170.42,605.36,183.17z M580.29,180.67c0-17.29-5.38-25.94-16.14-25.94
		c-11.34,0-17,8.58-17,25.75v2.11c3.71,0.58,10.31,0.86,19.79,0.86c4.93,0,9.35-0.29,13.26-0.86
		C580.26,181.69,580.29,181.05,580.29,180.67z"/>
	<path class="st0" d="M713.83,189.41c0,22.67-7.62,38.01-22.87,46.02c-7.43,3.91-15.92,5.86-25.46,5.86
		c-14.73,0-25.96-4.26-33.67-12.78c-7.72-8.52-11.58-20.72-11.58-36.6c0-21.97,7.49-36.6,22.48-43.9
		c7.36-3.59,15.92-5.38,25.65-5.38c20.43,0,33.98,7.08,40.64,21.23C712.23,170.64,713.83,179.16,713.83,189.41z M687.22,197.29
		c0-15.95-1.75-27.36-5.24-34.25c-3.49-6.88-8.82-10.33-16-10.33c-12.75,0-19.12,11.5-19.12,34.49c0,29.53,7.14,44.29,21.42,44.29
		c8.9,0,14.57-4.9,17-14.7C686.58,211.67,687.22,205.17,687.22,197.29z"/>
	<path class="st0" d="M837.76,236.68l-0.96,1.06c-7.05-0.45-13-0.67-17.87-0.67c-4.48,0-11.02,0.22-19.6,0.67l-0.96-0.96
		c1.15-14.28,1.73-25.3,1.73-33.05v-18.83c0-15.63-5.64-23.44-16.91-23.44c-5.89,0-10.5,2.02-13.83,6.05
		c-2.82,3.4-4.23,6.82-4.23,10.28v17.96c0,16.59,0.42,26.77,1.25,30.55c0.51,2.24,4.23,3.43,11.14,3.55l0.96,0.96v5.86l-0.96,0.96
		c-5.44-0.38-13.58-0.58-24.4-0.58c-11.47,0-20.21,0.22-26.23,0.67l-0.96-0.96v-5.86l0.96-0.96c6.15-0.19,9.96-0.67,11.43-1.44
		c1.28-0.58,1.98-2.11,2.11-4.61c0.45-8.33,0.67-17.26,0.67-26.8v-13.74c0-12.81-0.48-20.17-1.44-22.1
		c-0.64-1.28-2.02-2.08-4.13-2.4c-0.77-0.13-3.55-0.29-8.36-0.48l-0.96-0.96v-5.38l0.96-1.06c11.53-1.09,23.67-3.75,36.41-7.97
		l2.11,1.25l-0.19,16.14l16.52-13.83c4.23-1.73,8.87-2.59,13.93-2.59c10.18,0,17.8,3.07,22.87,9.22c4.1,5,6.15,12.33,6.15,22
		c0,1.09-0.13,5.54-0.38,13.35c-0.26,7.81-0.38,13.39-0.38,16.72c0,9.67,0.16,15.84,0.48,18.49c0.32,2.66,1.06,4.34,2.21,5.04
		c1.15,0.71,4.48,1.12,9.99,1.25l0.87,0.96V236.68z"/>
	<path class="st0" d="M324.74,397.65c0,21.71-7.08,39.71-21.23,53.99c-6.92,6.98-15.31,12.39-25.17,16.24
		c-10.57,4.16-22.9,6.12-36.99,5.86l-33.91-0.58c-9.22-0.13-16.85,0.06-22.86,0.58l-0.96-0.96v-2.69l0.48-1.15
		c4.74-3.01,7.3-4.9,7.69-5.67c0.58-1.15,0.93-5.41,1.06-12.78l0.29-21.52v-48.71c0-15.24-0.42-25.17-1.25-29.78
		c-0.32-1.86-1.41-3.04-3.27-3.55c-0.96-0.26-4.71-0.58-11.24-0.96l-0.96-0.96v-6.53l0.96-0.86c6.79,0.38,13.26,0.58,19.41,0.58
		c14.92,0,28.37-0.19,40.35-0.58c5.96-0.19,11.94-0.29,17.97-0.29c16.65,0,29.43,1.89,38.33,5.67c9.73,4.16,17.36,10.7,22.86,19.6
		C321.92,371.75,324.74,383.43,324.74,397.65z M295.25,402.26c0-17.74-4.29-31.38-12.87-40.93c-4.48-5-10.09-8.52-16.81-10.57
		c-6.41-1.92-15.34-2.88-26.8-2.88c-5.96,0-11.66,0.42-17.1,1.25c-0.64,7.17-0.96,24.53-0.96,52.07l0.19,41.98
		c0.06,9.35,0.32,15.56,0.77,18.64c5.64,0.9,11.4,1.34,17.29,1.34c12.74,0,22.8-1.86,30.17-5.57c7.94-4.04,14.25-10.89,18.93-20.56
		C292.85,427.05,295.25,415.46,295.25,402.26z"/>
	<path class="st0" d="M393.82,472.88l-0.96,0.96c-6.09-0.45-14.86-0.67-26.32-0.67c-11.47,0-20.21,0.22-26.23,0.67l-0.96-0.96v-5.86
		l0.96-0.96c6.15-0.19,9.96-0.67,11.43-1.44c1.28-0.58,1.98-2.11,2.11-4.61c0.45-8.32,0.67-17.26,0.67-26.8v-13.74
		c0-12.42-0.48-19.79-1.44-22.1c-0.51-1.28-1.89-2.08-4.13-2.4c-0.77-0.13-3.55-0.29-8.36-0.48l-0.96-0.96v-5.38l0.96-1.06
		c12.3-1.09,24.69-3.75,37.18-7.97l2.02,1.25c-0.83,11.66-1.25,21.49-1.25,29.49v30.65c0,4.68,0.22,11.18,0.67,19.5
		c0.13,2.5,0.83,4.04,2.11,4.61c1.47,0.77,5.28,1.25,11.43,1.44l1.06,0.96V472.88z M380.56,347.5c0,4.1-1.44,7.61-4.32,10.52
		c-2.88,2.92-6.34,4.37-10.38,4.37c-4.1,0-7.59-1.46-10.47-4.37c-2.88-2.91-4.32-6.42-4.32-10.52c0-4.23,1.46-7.78,4.37-10.66
		c2.91-2.88,6.39-4.32,10.42-4.32c3.97,0,7.41,1.44,10.33,4.32C379.1,339.72,380.56,343.28,380.56,347.5z"/>
	<path class="st0" d="M482.01,461.06l-4.23,9.51c-8.71,4.55-17.29,6.82-25.75,6.82c-14.28,0-25.2-4.1-32.76-12.3
		c-7.56-8.2-11.34-19.44-11.34-33.72c0-13.19,2.91-23.22,8.74-30.07c1.6-1.92,4.64-4.45,9.13-7.59
		c9.22-6.53,15.39-10.44,18.49-11.72c3.11-1.28,7.86-1.92,14.27-1.92c8.71,0,15.92,1.31,21.62,3.94l0.96,1.73
		c-0.06,0.83-0.51,3.81-1.35,8.93l-1.06,6.53c-0.19,1.09-0.48,5.38-0.86,12.87l-0.96,0.96h-5.76l-0.96-0.96
		c-0.38-5.7-0.83-9.67-1.34-11.91c-2.82-5-8.23-7.49-16.24-7.49c-13.58,0-20.37,8.81-20.37,26.42c0,12.81,2.72,22.9,8.17,30.26
		c5.57,7.62,13.42,11.43,23.54,11.43c6.15,0,11.56-1.31,16.24-3.94L482.01,461.06z"/>
	<path class="st0" d="M578.08,419.27c0,1.09-0.03,2.72-0.1,4.9l-1.06,1.34c-8.45,2.31-19.66,3.46-33.62,3.46
		c-2.5,0-6.28,0.05-11.34,0.14c-5.06,0.1-8.87,0.14-11.43,0.14c0.38,9.42,3.3,17.2,8.74,23.34c5.7,6.6,13.13,9.9,22.29,9.9
		c6.15,0,13.45-2.11,21.9-6.34l2.31,2.79l-4.23,9.51c-9.35,5.96-19.5,8.93-30.46,8.93c-14.41,0-25.6-4.07-33.58-12.2
		s-11.96-19.73-11.96-34.78c0-17.87,4.26-30.1,12.78-36.7c11.78-9.09,22.96-13.64,33.53-13.64c11.46,0,20.33,3.3,26.61,9.9
		C574.88,396.76,578.08,406.52,578.08,419.27z M553.01,416.77c0-17.29-5.38-25.94-16.14-25.94c-11.34,0-17,8.58-17,25.75v2.11
		c3.71,0.58,10.31,0.86,19.79,0.86c4.93,0,9.35-0.29,13.26-0.86C552.97,417.8,553.01,417.16,553.01,416.77z"/>
	<path class="st0" d="M665.6,443c0,10.31-3.89,18.62-11.67,24.93c-7.78,6.31-17.95,9.46-30.5,9.46c-8.9,0-18.45-1.92-28.63-5.76
		l-1.06-1.44c0.58-5.89,0.93-10.47,1.06-13.74l0.48-12.11l0.96-1.06h5.67l1.15,1.06c0.25,7.17,0.54,11.4,0.86,12.68
		c5.44,6.98,12.58,10.47,21.42,10.47c5.63,0,10.15-1.38,13.55-4.13c3.39-2.75,5.09-6.44,5.09-11.05c0-5.83-2.56-9.7-7.69-11.62
		c-2.18-0.83-6.5-1.92-12.97-3.27c-10.57-2.24-17.65-4.8-21.23-7.69c-5.44-4.35-8.17-10.79-8.17-19.31
		c0-9.29,3.36-16.75,10.09-22.38c7.04-5.89,16.59-8.84,28.63-8.84c10.25,0,18.76,1.73,25.55,5.19l0.86,1.54
		c-0.71,2.88-1.25,10.28-1.63,22.19l-1.06,0.96h-5.48l-1.06-0.96c-0.26-4.61-0.71-8.36-1.34-11.24c-4.04-5.12-9.9-7.69-17.58-7.69
		c-5,0-9.1,1.22-12.3,3.65c-3.2,2.44-4.8,5.64-4.8,9.61c0,5.32,2.72,8.87,8.17,10.66c2.43,0.77,7.17,1.86,14.22,3.27
		c10.76,2.11,17.87,4.55,21.33,7.3C662.91,427.98,665.6,434.42,665.6,443z"/>
</g>
<g>
</g>
<g>
</g>
<g>
</g>
<g>
</g>
<g>
</g>
<g>
</g>
</svg>
